<svg width="113" height="111" viewBox="0 0 113 111" fill="none" xmlns="http://www.w3.org/2000/svg">
<path d="M69.5267 95.8007C64.721 90.4404 58.4876 90.7872 53.0252 93.5766C47.5629 96.3659 42.5452 101.33 37.2231 104.86C32.7613 107.818 28.0793 109.761 23.3401 110.625C16.5571 111.854 8.98229 110.352 4.25661 101.691C-1.00626 92.0406 -0.602066 74.6353 5.08787 65.7825C7.98375 61.2769 11.7753 59.065 15.0816 55.5425C18.3879 52.0199 21.449 46.1818 21.1674 39.392C20.9066 33.1114 17.8757 28.2809 14.7387 25.2553C12.3146 22.9151 9.32934 20.3606 9.03736 15.5164C8.75474 10.8278 11.2651 7.15507 13.6623 5.06611C21.4823 -1.74963 31.1186 -1.6841 38.9116 5.23814C41.6911 7.70667 44.2462 10.9903 47.1607 12.9154C54.8135 17.9671 63.2465 12.8813 71.3502 11.0217C78.2081 9.44746 85.2415 10.2626 91.9238 13.4069C95.9366 15.2952 99.9651 18.1856 102.784 23.5609C104.818 27.4385 106.084 32.3455 107.273 37.1924C108.541 42.3615 109.759 47.5667 110.929 52.8077C111.631 55.948 112.322 59.162 112.504 62.5275C112.832 68.6278 111.448 74.6572 109.563 79.8058C105.085 92.0269 97.5472 100.622 89.3843 102.806C81.2214 104.991 72.5857 100.724 66.2546 91.3934" fill="white" fill-opacity="0.5"/>
</svg>
